<svg width="12" height="10" viewBox="0 0 12 10" fill="none" xmlns="http://www.w3.org/2000/svg">
<path d="M4.89451 4.33179L0.612382 0.10366C0.472083 -0.0347886 0.244936 -0.0345558 0.104872 0.104376C-0.0350833 0.24329 -0.0347217 0.46832 0.105595 0.606876L4.13284 4.58335L0.105451 8.55981C-0.0348483 8.69838 -0.03521 8.92327 0.104727 9.0622C0.17494 9.13184 0.266924 9.16667 0.358907 9.16667C0.450656 9.16667 0.542278 9.13208 0.612364 9.06291L4.89451 4.8349C4.96208 4.76833 5 4.67774 5 4.58335C5 4.48896 4.96197 4.39848 4.89451 4.33179Z" fill="#15161A"/>
<path d="M11.5625 4.33179L7.28035 0.10366C7.14005 -0.0347886 6.9129 -0.0345558 6.77284 0.104376C6.63289 0.24329 6.63325 0.46832 6.77356 0.606876L10.8008 4.58335L6.77342 8.55981C6.63312 8.69838 6.63276 8.92327 6.7727 9.0622C6.84291 9.13184 6.93489 9.16667 7.02688 9.16667C7.11862 9.16667 7.21025 9.13208 7.28033 9.06291L11.5625 4.8349C11.6301 4.76833 11.668 4.67774 11.668 4.58335C11.668 4.48896 11.6299 4.39848 11.5625 4.33179Z" fill="#15161A"/>
</svg>
