<svg width="215" height="111" viewBox="0 0 215 111" fill="none" xmlns="http://www.w3.org/2000/svg">
<path d="M18.8209 58.5029C8.67934 42.3662 2.80957 23.2738 2.80957 2.80273" stroke="#F94FA5" stroke-width="2" stroke-miterlimit="10"/>
<path d="M65.309 98.7036C46.0912 90.2227 29.9023 76.1331 18.8208 58.5029" stroke="#EB407A" stroke-width="3" stroke-miterlimit="10"/>
<path d="M150.421 98.4424C137.344 104.312 122.837 107.571 107.578 107.571C92.5377 107.571 78.2393 104.406 65.3091 98.693" stroke="#FE59AC" stroke-width="6" stroke-miterlimit="10"/>
<path d="M195.52 59.7979C184.574 76.6447 168.928 90.1494 150.431 98.4527" stroke="#EB407A" stroke-width="5" stroke-miterlimit="10"/>
<path d="M212.356 2.80273C212.356 23.8169 206.173 43.3898 195.52 59.7875" stroke="#F0449C" stroke-miterlimit="10"/>
<path d="M214.194 2.83362C214.194 3.85718 213.369 4.68229 212.346 4.68229C211.322 4.68229 210.497 3.85718 210.497 2.83362C210.497 1.81007 211.322 0.98496 212.346 0.98496C213.369 0.974516 214.194 1.81007 214.194 2.83362Z" fill="white" stroke="#FE59AC" stroke-miterlimit="10"/>
<path d="M5.49377 2.8338C5.49377 4.34824 4.26132 5.58069 2.74687 5.58069C1.23243 5.58069 0 4.34824 0 2.8338C0 1.31935 1.23243 0.0869141 2.74687 0.0869141C4.26132 0.0869141 5.49377 1.30891 5.49377 2.8338Z" fill="#E33C91"/>
<path d="M199.28 59.8084C199.28 61.866 197.609 63.5476 195.541 63.5476C193.473 63.5476 191.802 61.8764 191.802 59.8084C191.802 57.7404 193.473 56.0693 195.541 56.0693C197.598 56.0693 199.28 57.7404 199.28 59.8084Z" fill="white" stroke="#EB407A" stroke-miterlimit="10"/>
<path d="M22.8838 60.3409C22.8838 62.0747 21.4843 63.4742 19.7505 63.4742C18.0167 63.4742 16.6172 62.0747 16.6172 60.3409C16.6172 58.6071 18.0167 57.2076 19.7505 57.2076C21.4843 57.1971 22.8838 58.6071 22.8838 60.3409Z" fill="white" stroke="#E33C91" stroke-width="1.5" stroke-miterlimit="10"/>
<path d="M155.298 98.4526C155.298 101.053 153.189 103.163 150.588 103.163C147.987 103.163 145.877 101.053 145.877 98.4526C145.877 95.852 147.987 93.7422 150.588 93.7422C153.189 93.7422 155.298 95.852 155.298 98.4526Z" fill="white" stroke="#E33C91" stroke-width="1.2599" stroke-miterlimit="10"/>
<path d="M69.1839 98.4525C69.1839 100.562 67.471 102.275 65.3612 102.275C63.2514 102.275 61.5386 100.562 61.5386 98.4525C61.5386 96.3428 63.2514 94.6299 65.3612 94.6299C67.4814 94.6299 69.1839 96.3428 69.1839 98.4525Z" fill="white" stroke="#E33C91" stroke-width="1.6245" stroke-miterlimit="10"/>
</svg>
