<svg width="126" height="120" viewBox="0 0 126 120" fill="none" xmlns="http://www.w3.org/2000/svg">
<path d="M100.472 2.73975H11.893C4.95792 2.73975 -0.514966 8.66174 0.038589 15.576C2.85859 50.7006 12.9061 83.7885 28.7086 113.346C31.9777 119.456 39.7692 121.451 45.5972 117.712L120.139 69.8243C125.205 66.5761 126.98 60.0797 124.411 54.6381C118.322 41.781 114.154 27.8377 112.264 13.1842C111.502 7.22041 106.478 2.73975 100.472 2.73975Z" fill="#D8DBE8"/>
<path d="M100.472 0H11.893C4.95792 0 -0.514966 5.92199 0.038589 12.8362C2.85859 47.9608 12.9061 81.0488 28.7086 110.607C31.9777 116.717 39.7692 118.711 45.5972 114.972L120.139 67.0846C125.205 63.8364 126.98 57.3399 124.411 51.8984C118.322 39.0413 114.154 25.098 112.264 10.4444C111.502 4.48066 106.478 0 100.472 0Z" fill="#FFEFF6"/>
</svg>
