<svg width="145" height="148" viewBox="0 0 145 148" fill="none" xmlns="http://www.w3.org/2000/svg">
<path d="M80.2545 5.36885L5.72308 53.2566C-0.125804 57.0166 -1.51491 64.9648 2.70464 70.4794C27.5311 102.941 60.0968 129.156 97.6654 146.369C103.984 149.262 111.431 146.149 113.802 139.611L144.007 56.3063C146.054 50.6663 143.558 44.431 138.232 41.6737C121.949 33.2346 107.546 21.6726 95.8168 7.78151C91.9419 3.18596 85.2992 2.12063 80.2545 5.36885Z" fill="#D8DBE8"/>
<path d="M80.2545 2.23506L5.72308 50.1228C-0.125804 53.8828 -1.51491 61.831 2.70464 67.3456C27.5311 99.8069 60.0968 126.022 97.6654 143.235C103.984 146.128 111.431 143.016 113.802 136.477L144.007 53.1725C146.054 47.5325 143.558 41.2972 138.232 38.5399C121.949 30.1008 107.546 18.5388 95.8168 4.64772C91.9419 0.0521678 85.2992 -1.01316 80.2545 2.23506Z" fill="#FFEFF6"/>
</svg>
