<svg width="150" height="120" viewBox="0 0 150 120" fill="none" xmlns="http://www.w3.org/2000/svg">
<path d="M74.995 7.15205C64.5923 7.15205 54.4612 6.00317 44.7166 3.83073C38.9199 2.53562 33.071 5.80474 31.0448 11.3925L0.839512 94.7077C-1.52093 101.204 2.14507 108.379 8.81906 110.207C29.9064 115.962 52.0903 119.043 74.995 119.043C97.8996 119.043 120.094 115.962 141.171 110.207C147.845 108.39 151.5 101.215 149.15 94.7077L118.945 11.3925C116.919 5.80474 111.07 2.53562 105.273 3.83073C95.5287 6.00317 85.3976 7.15205 74.995 7.15205Z" fill="#D8DBE8"/>
<path d="M74.8734 4.01875C64.4707 4.01875 54.3396 2.86987 44.595 0.697431C38.7983 -0.597678 32.9494 2.67143 30.9232 8.25921L0.71793 91.5744C-1.64251 98.0709 2.02348 105.246 8.69748 107.074C29.7848 112.829 51.9688 115.91 74.8734 115.91C97.778 115.91 119.972 112.829 141.049 107.074C147.723 105.257 151.379 98.0813 149.029 91.5744L118.824 8.25921C116.797 2.67143 110.948 -0.597678 105.152 0.697431C95.4071 2.86987 85.276 4.01875 74.8734 4.01875Z" fill="#FFEFF6"/>
</svg>
