<svg width="145" height="148" viewBox="0 0 145 148" fill="none" xmlns="http://www.w3.org/2000/svg">
<path d="M0.993142 56.306L31.1984 139.611C33.5693 146.149 41.0162 149.261 47.3351 146.368C84.8933 129.156 117.469 102.94 142.296 70.4791C146.515 64.9644 145.126 57.0162 139.277 53.2562L64.746 5.36849C59.7013 2.12028 53.0586 3.1856 49.1837 7.7707C37.4546 21.6722 23.0622 33.2342 6.76891 41.6629C1.4527 44.4307 -1.05397 50.666 0.993142 56.306Z" fill="#D8DBE8"/>
<path d="M0.992654 53.1727L31.1979 136.477C33.5688 143.016 41.0157 146.128 47.3346 143.235C84.8928 126.023 117.469 99.8071 142.295 67.3458C146.515 61.8311 145.126 53.8829 139.277 50.1229L64.7455 2.23519C59.7008 -1.01302 53.0581 0.0522946 49.1832 4.6374C37.4541 18.5389 23.0617 30.1009 6.76842 38.5296C1.45221 41.2974 -1.05445 47.5327 0.992654 53.1727Z" fill="#FFEFF6"/>
</svg>
