<svg width="126" height="121" viewBox="0 0 126 121" fill="none" xmlns="http://www.w3.org/2000/svg">
<path d="M13.7362 14.1744C11.8457 28.828 7.67838 42.7713 1.58927 55.6284C-0.980058 61.0595 0.795492 67.5559 5.86104 70.8146L80.403 118.702C86.2309 122.441 94.0225 120.447 97.2916 114.337C113.094 84.7892 123.152 51.7013 125.962 16.5662C126.515 9.65197 121.053 3.72998 114.107 3.72998H25.5279C19.5223 3.74042 14.4986 8.22109 13.7362 14.1744Z" fill="#D8DBE8"/>
<path d="M13.7362 11.0411C11.8457 25.6947 7.67838 39.638 1.58927 52.4951C-0.980058 57.9262 0.795492 64.4226 5.86104 67.6813L80.403 115.569C86.2309 119.308 94.0225 117.313 97.2916 111.203C113.094 81.6559 123.152 48.568 125.962 13.4329C126.515 6.51867 121.053 0.59668 114.107 0.59668H25.5279C19.5223 0.607124 14.4986 5.08779 13.7362 11.0411Z" fill="#FFEFF6"/>
</svg>
