<svg width="310" height="311" viewBox="0 0 310 311" fill="none" xmlns="http://www.w3.org/2000/svg">
<rect width="310" height="311" fill="#E33C91"/>
<path d="M104.907 192.018L104.797 165.595C104.797 158.811 102.773 150.004 94.3486 147.542V147.159C101.679 145.573 103.484 137.093 103.484 130.146L103.594 116.579C103.594 101.917 96.7557 94.5869 83.134 94.5869H56V216.033H86.5257C98.178 215.979 104.907 204.108 104.907 192.018ZM80.5081 109.248C85.1034 109.248 87.3463 112.202 87.3463 118.056L87.5651 131.841C87.5651 137.695 84.611 140.649 78.7575 140.649H72.5211L72.3023 109.248H80.5081ZM81.9304 197.926H72.6305L72.5211 157.827H80.0704C86.1428 157.827 87.8933 163.188 87.8933 168.987L88.0028 189.72C88.0028 193.276 85.9787 197.926 81.9304 197.926Z" fill="white"/>
<path d="M152.556 195.628H127.665V161.109H148.125V141.196H127.665V112.311H151.626V94.532H111.089V216.799H152.556V195.628Z" fill="white"/>
<path d="M175.151 123.635C174.002 117.344 176.792 109.357 181.168 109.466C186.639 109.63 188.991 114.007 188.991 118.93L188.882 129.762L204.911 129.926L204.637 116.797C204.637 102.792 195.501 93 183.247 93L178.05 93.5471C168.531 94.0941 159.669 103.339 158.63 115.484C157.809 125.55 157.919 139.062 170.446 152.684L181.934 166.524C189.648 173.691 188.608 187.367 188.608 187.367C188.608 192.181 186.913 198.363 181.059 198.199C174.658 198.035 173.947 191.197 173.947 186.382V170.518H157.7V193.439C157.7 208.484 166.617 217.674 178.871 217.674H184.232C196.595 217.674 205.02 206.678 205.567 190.102C205.786 182.389 208.302 166.907 192.93 149.401C186.42 141.962 177.011 133.646 175.151 123.635Z" fill="white"/>
<path d="M209.122 94.532V112.311H223.509V217.182H239.429V112.311H253.816V94.532H209.122Z" fill="white"/>
</svg>
