<svg width="311" height="311" viewBox="0 0 311 311" fill="none" xmlns="http://www.w3.org/2000/svg">
<rect width="311" height="311" fill="#E33C91"/>
<path d="M131.794 94.374H105.098V215.383H134.967C147.221 215.383 153.02 204.442 153.02 192.625L152.363 119.593C152.363 103.893 146.127 94.374 131.794 94.374ZM129.66 198.315L121.673 198.369V112.591L129.332 112.646C133.928 112.646 135.897 118.827 135.897 124.79L136.061 189.398C136.061 193.008 133.709 198.315 129.66 198.315Z" fill="white"/>
<path d="M187.813 93.937H176.051C164.454 93.937 157.725 108.051 157.725 122.056V188.632C157.725 202.528 164.837 216.587 176.544 216.587H187.977C199.684 216.587 206.468 205.482 206.468 191.586V123.752C206.468 109.747 199.411 93.937 187.813 93.937ZM190.056 191.641C189.783 198.096 184.64 198.808 182.288 198.808C179.826 198.808 174.957 198.315 174.137 191.641V120.579C174.356 113.631 179.607 111.771 181.96 111.716C184.367 111.716 189.892 114.233 190.056 120.579V191.641Z" fill="white"/>
</svg>
