<svg width="270" height="95" viewBox="0 0 270 95" fill="none" xmlns="http://www.w3.org/2000/svg">
<path d="M187.621 54.434L187.561 39.9083C187.561 36.1792 186.449 31.3373 181.817 29.9839V29.7734C185.847 28.9013 186.839 24.2398 186.839 20.4205L186.9 12.9621C186.9 4.90233 183.14 0.872437 175.652 0.872437H160.735V67.6364H177.517C183.922 67.6063 187.621 61.0803 187.621 54.434ZM174.208 8.93223C176.735 8.93223 177.968 10.5562 177.968 13.7741L178.088 21.3527C178.088 24.5706 176.464 26.1946 173.246 26.1946H169.818L169.697 8.93223H174.208ZM174.99 57.682H169.878L169.818 35.6378H173.968C177.306 35.6378 178.268 38.5851 178.268 41.7729L178.329 53.1709C178.329 55.1257 177.216 57.682 174.99 57.682Z" fill="black"/>
<path d="M213.815 56.4187H200.131V37.4421H211.379V26.4952H200.131V10.6162H213.304V0.842163H191.019V68.0573H213.815V56.4187Z" fill="black"/>
<path d="M146.329 56.4187H132.675V37.4421H143.893V26.4952H132.675V10.6162H145.818V0.842163H124.375V68.0573H146.329V56.4187Z" fill="black"/>
<path d="M226.236 16.8414C225.605 13.3829 227.138 8.99209 229.544 9.05223C232.552 9.14246 233.845 11.5484 233.845 14.255L233.785 20.2096L242.596 20.2999L242.446 13.0821C242.446 5.38322 237.424 0 230.687 0L227.83 0.300739C222.597 0.601477 217.725 5.68396 217.154 12.3604C216.703 17.894 216.763 25.3222 223.65 32.8106L229.965 40.4193C234.206 44.359 233.634 51.8774 233.634 51.8774C233.634 54.5239 232.702 57.9223 229.484 57.8321C225.965 57.7418 225.575 53.9826 225.575 51.3361V42.6147H216.643V55.2156C216.643 63.4859 221.545 68.5384 228.281 68.5384H231.228C238.025 68.5384 242.656 62.4935 242.957 53.3811C243.078 49.1407 244.461 40.6298 236.01 31.0062C232.431 26.9161 227.259 22.3449 226.236 16.8414Z" fill="black"/>
<path d="M244.911 0.842163V10.6162H252.821V68.2678H261.572V10.6162H269.481V0.842163H244.911Z" fill="black"/>
<path d="M84.5276 68.2678V10.6162H92.4371V0.842163H67.8667V10.6162H75.7461V68.2678H84.5276Z" fill="black"/>
<path d="M14.9368 0.96228H0.260742V67.4857H16.6811C23.4176 67.4857 26.6055 61.4709 26.6055 54.975L26.2446 14.8263C26.2446 6.19513 22.8161 0.96228 14.9368 0.96228ZM13.7639 58.1026L9.37312 58.1327V10.9769L13.5835 11.007C16.1097 11.007 17.1923 14.4053 17.1923 17.6834L17.2826 53.2006C17.2826 55.1855 15.9894 58.1026 13.7639 58.1026Z" fill="black"/>
<path d="M45.7325 0.721802H39.2666C32.891 0.721802 29.1919 8.48086 29.1919 16.1798V52.7797C29.1919 60.4184 33.1015 68.1474 39.5373 68.1474H45.8227C52.2585 68.1474 55.9877 62.0424 55.9877 54.4037V17.1121C55.9877 9.41315 52.1082 0.721802 45.7325 0.721802ZM46.9655 54.4337C46.8152 57.9824 43.9882 58.3734 42.6951 58.3734C41.3417 58.3734 38.6652 58.1027 38.2141 54.4337V15.3678C38.3343 11.5484 41.2214 10.5259 42.5146 10.4958C43.8379 10.4958 46.8753 11.8792 46.9655 15.3678V54.4337Z" fill="black"/>
<path d="M111.203 30.2245H105.098V0.872437H95.1738V68.1777H105.098V39.9384H111.203V68.1777H120.316V0.872437H111.203V30.2245Z" fill="black"/>
<path d="M89.5213 93.8306L85.6718 84.0867H84.8899L81.0404 93.8306L77.0105 82.7935H76.1685L80.5893 94.372H81.4615L85.2808 84.6581L89.0701 94.372H89.9724L94.3932 82.7935H93.5512L89.5213 93.8306Z" fill="black"/>
<path d="M97.8515 82.7935H97.0996V94.372H97.8515V82.7935Z" fill="black"/>
<path d="M97.8515 78.7036H97.0996V80.5681H97.8515V78.7036Z" fill="black"/>
<path d="M103.926 78.7036H103.234V82.7936H100.678V83.4552H103.234V94.372H103.926V83.4552H106.452V82.7936H103.926V78.7036Z" fill="black"/>
<path d="M114.662 82.4628C112.527 82.4628 110.723 83.6056 109.971 84.9589V78.7036H109.249V94.372H109.971V87.1543C109.971 84.9288 111.986 83.0943 114.452 83.0943C116.918 83.0943 118.933 84.9288 118.933 87.1543V94.372H119.685V87.1844C119.685 84.598 117.399 82.4628 114.662 82.4628Z" fill="black"/>
<path d="M136.796 87.9361H147.652C146.901 91.3946 143.653 94.0111 139.563 94.0111C134.871 94.0111 131.082 90.5826 131.082 86.3723C131.082 82.1619 134.871 78.7335 139.563 78.7335C142.45 78.7335 144.886 80.0568 146.329 82.0417H147.352C145.788 79.6658 142.961 78.0719 139.563 78.0719C134.39 78.0719 130.149 81.8011 130.149 86.4024C130.149 91.0037 134.36 94.7328 139.563 94.7328C144.404 94.7328 148.134 91.4548 148.615 87.3046H136.796V87.9361Z" fill="black"/>
<path d="M152.135 78.3727H151.292V94.372H159.593V93.7104H152.135V78.3727Z" fill="black"/>
<path d="M168.013 78.3727L160.795 94.372H161.787L164.344 88.6579H172.464L175.02 94.372H176.012L168.795 78.3727H168.013ZM164.644 87.9963L168.434 79.2448L172.223 87.9963H164.644Z" fill="black"/>
<path d="M186.629 93.3194L179.531 78.3727H178.328V94.372H179.17V79.4854L186.298 94.372H186.989L194.087 79.4854V94.372H194.929V78.3727H193.756L186.629 93.3194Z" fill="black"/>
<path d="M204.883 79.0644H208.913V94.372H209.785V79.0644H213.815V78.3727H204.883V79.0644Z" fill="black"/>
<path d="M216.25 94.372H225.213V93.7104H217.093V86.643H224.942V85.9513H217.093V79.0644H225.213V78.3727H216.25V94.372Z" fill="black"/>
<path d="M234.266 78.3727L227.048 94.372H228.041L230.597 88.6579H238.717L241.243 94.372H242.236L235.018 78.3727H234.266ZM230.868 87.9963L234.657 79.2448L238.476 87.9963H230.868Z" fill="black"/>
<path d="M252.881 93.3194L245.754 78.3727H244.581V94.372H245.423V79.4854L252.521 94.372H253.212L260.34 79.4854V94.372H261.182V78.3727H259.979L252.881 93.3194Z" fill="black"/>
</svg>
