<svg width="498" height="175" viewBox="0 0 498 175" fill="none" xmlns="http://www.w3.org/2000/svg">
<path d="M346.111 100.556L346 73.7227C346 66.8338 343.944 57.8893 335.389 55.3893V55.0004C342.833 53.3893 344.667 44.7782 344.667 37.7227L344.778 23.9449C344.778 9.05601 337.833 1.61157 324 1.61157H296.444V124.945H327.444C339.278 124.889 346.111 112.834 346.111 100.556ZM321.333 16.5005C326 16.5005 328.278 19.5005 328.278 25.4449L328.5 39.4449C328.5 45.3893 325.5 48.3893 319.555 48.3893H313.222L313 16.5005H321.333ZM322.778 106.556H313.333L313.222 65.8338H320.889C327.055 65.8338 328.833 71.2782 328.833 77.1671L328.944 98.2226C328.944 101.834 326.889 106.556 322.778 106.556Z" fill="white"/>
<path d="M394.5 104.222H369.222V69.1667H390V48.9445H369.222V19.6112H393.556V1.55566H352.389V125.722H394.5V104.222Z" fill="white"/>
<path d="M269.832 104.222H244.61V69.1667H265.332V48.9445H244.61V19.6112H268.888V1.55566H229.277V125.722H269.832V104.222Z" fill="white"/>
<path d="M417.445 31.1111C416.279 24.7222 419.112 16.6111 423.556 16.7222C429.112 16.8889 431.501 21.3333 431.501 26.3333L431.39 37.3333L447.668 37.5L447.39 24.1667C447.39 9.94444 438.112 0 425.668 0L420.39 0.555555C410.723 1.11111 401.723 10.5 400.668 22.8333C399.834 33.0555 399.945 46.7778 412.668 60.6111L424.334 74.6666C432.168 81.9444 431.112 95.8333 431.112 95.8333C431.112 100.722 429.39 107 423.445 106.833C416.945 106.667 416.223 99.7222 416.223 94.8333V78.7222H399.723V102C399.723 117.278 408.779 126.611 421.223 126.611H426.668C439.223 126.611 447.779 115.444 448.334 98.6111C448.556 90.7777 451.112 75.0555 435.501 57.2778C428.89 49.7222 419.334 41.2778 417.445 31.1111Z" fill="white"/>
<path d="M451.944 1.55566V19.6112H466.555V126.111H482.722V19.6112H497.333V1.55566H451.944Z" fill="white"/>
<path d="M155.666 126.111V19.6112H170.277V1.55566H124.888V19.6112H139.444V126.111H155.666Z" fill="white"/>
<path d="M27.1111 1.77771H0V124.667H30.3333C42.7778 124.667 48.6666 113.555 48.6666 101.555L48 27.3888C48 11.4444 41.6666 1.77771 27.1111 1.77771ZM24.9444 107.333L16.8333 107.389V20.2777L24.6111 20.3333C29.2778 20.3333 31.2778 26.611 31.2778 32.6666L31.4444 98.2777C31.4444 101.944 29.0555 107.333 24.9444 107.333Z" fill="white"/>
<path d="M84.0004 1.33337H72.0559C60.2782 1.33337 53.4448 15.6667 53.4448 29.8889V97.5C53.4448 111.611 60.667 125.889 72.5559 125.889H84.167C96.0559 125.889 102.945 114.611 102.945 100.5V31.6111C102.945 17.3889 95.7781 1.33337 84.0004 1.33337ZM86.2781 100.556C86.0004 107.111 80.7781 107.833 78.3893 107.833C75.8893 107.833 70.9448 107.333 70.1115 100.556V28.3889C70.3337 21.3334 75.667 19.4445 78.0559 19.3889C80.5004 19.3889 86.1115 21.9445 86.2781 28.3889V100.556Z" fill="white"/>
<path d="M204.945 55.8338H193.667V1.61157H175.333V125.945H193.667V73.7782H204.945V125.945H221.778V1.61157H204.945V55.8338Z" fill="white"/>
<path d="M164.891 173.334L157.78 155.334H156.335L149.224 173.334L141.78 152.945H140.224L148.391 174.334H150.002L157.057 156.389L164.057 174.334H165.724L173.891 152.945H172.335L164.891 173.334Z" fill="white"/>
<path d="M180.28 152.945H178.891V174.334H180.28V152.945Z" fill="white"/>
<path d="M180.28 145.389H178.891V148.834H180.28V145.389Z" fill="white"/>
<path d="M191.5 145.389H190.222V152.945H185.5V154.167H190.222V174.334H191.5V154.167H196.167V152.945H191.5V145.389Z" fill="white"/>
<path d="M211.333 152.334C207.389 152.334 204.056 154.445 202.667 156.945V145.389H201.333V174.334H202.667V161C202.667 156.889 206.389 153.5 210.945 153.5C215.5 153.5 219.222 156.889 219.222 161V174.334H220.611V161.056C220.611 156.278 216.389 152.334 211.333 152.334Z" fill="white"/>
<path d="M252.221 162.445H272.277C270.888 168.833 264.888 173.667 257.332 173.667C248.666 173.667 241.666 167.333 241.666 159.556C241.666 151.778 248.666 145.445 257.332 145.445C262.666 145.445 267.166 147.889 269.832 151.556H271.721C268.832 147.167 263.61 144.222 257.332 144.222C247.777 144.222 239.943 151.111 239.943 159.611C239.943 168.111 247.721 175 257.332 175C266.277 175 273.166 168.945 274.054 161.278H252.221V162.445Z" fill="white"/>
<path d="M280.557 144.778H279.001V174.334H294.335V173.111H280.557V144.778Z" fill="white"/>
<path d="M309.888 144.778L296.555 174.334H298.388L303.111 163.778H318.111L322.833 174.334H324.666L311.333 144.778H309.888ZM303.666 162.556L310.666 146.389L317.666 162.556H303.666Z" fill="white"/>
<path d="M344.277 172.389L331.166 144.778H328.944V174.334H330.499V146.834L343.666 174.334H344.944L358.055 146.834V174.334H359.611V144.778H357.444L344.277 172.389Z" fill="white"/>
<path d="M378 146.056H385.444V174.334H387.056V146.056H394.5V144.778H378V146.056Z" fill="white"/>
<path d="M398.998 174.334H415.553V173.111H400.553V160.056H415.053V158.778H400.553V146.056H415.553V144.778H398.998V174.334Z" fill="white"/>
<path d="M432.278 144.778L418.945 174.334H420.778L425.5 163.778H440.5L445.167 174.334H447L433.667 144.778H432.278ZM426 162.556L433 146.389L440.056 162.556H426Z" fill="white"/>
<path d="M466.667 172.389L453.5 144.778H451.333V174.334H452.889V146.834L466 174.334H467.278L480.445 146.834V174.334H482V144.778H479.778L466.667 172.389Z" fill="white"/>
</svg>
