<svg width="547" height="139" viewBox="0 0 547 139" fill="none" xmlns="http://www.w3.org/2000/svg">
<path d="M380.429 110.344L380.307 80.8987C380.307 73.3392 378.052 63.5242 368.663 60.7808V60.3541C376.832 58.5862 378.844 49.1369 378.844 41.3945L378.966 26.2757C378.966 9.93756 371.346 1.76849 356.166 1.76849H325.928V137.107H359.946C372.931 137.046 380.429 123.817 380.429 110.344ZM353.24 18.1066C358.361 18.1066 360.86 21.3986 360.86 27.9217L361.104 43.2844C361.104 49.8075 357.812 53.0995 351.289 53.0995H344.339L344.095 18.1066H353.24ZM354.825 116.928H344.461L344.339 72.2419H352.752C359.519 72.2419 361.47 78.2163 361.47 84.6784L361.592 107.783C361.592 111.746 359.336 116.928 354.825 116.928Z" fill="white"/>
<path d="M433.529 114.367H405.791V75.8993H428.591V53.7087H405.791V21.5202H432.493V1.70715H387.319V137.96H433.529V114.367Z" fill="white"/>
<path d="M296.726 114.367H269.049V75.8993H291.788V53.7087H269.049V21.5202H295.69V1.70715H252.223V137.96H296.726V114.367Z" fill="white"/>
<path d="M458.707 34.1394C457.427 27.1286 460.536 18.228 465.413 18.3499C471.509 18.5328 474.131 23.4098 474.131 28.8965L474.009 40.9672L491.871 41.1501L491.566 26.519C491.566 10.9124 481.385 0 467.73 0L461.938 0.609632C451.33 1.21926 441.454 11.522 440.296 25.0559C439.382 36.2731 439.504 51.331 453.464 66.5108L466.266 81.9345C474.862 89.9206 473.704 105.161 473.704 105.161C473.704 110.526 471.814 117.415 465.291 117.232C458.158 117.049 457.366 109.429 457.366 104.064V86.3848H439.26V111.928C439.26 128.693 449.197 138.935 462.853 138.935H468.827C482.605 138.935 491.993 126.681 492.603 108.21C492.846 99.6138 495.651 82.3612 478.52 62.853C471.265 54.562 460.78 45.2956 458.707 34.1394Z" fill="white"/>
<path d="M496.564 1.70715V21.5202H512.598V138.387H530.338V21.5202H546.371V1.70715H496.564Z" fill="white"/>
<path d="M171.447 138.387V21.5202H187.48V1.70715H137.673V21.5202H153.646V138.387H171.447Z" fill="white"/>
<path d="M30.3789 1.95074H0.628906V136.801H33.9148C47.5705 136.801 54.0326 124.609 54.0326 111.441L53.3011 30.0548C53.3011 12.5583 46.3513 1.95074 30.3789 1.95074ZM28.0014 117.781L19.1007 117.842V22.2515L27.6356 22.3124C32.7565 22.3124 34.9512 29.2013 34.9512 35.8463L35.1341 107.844C35.1341 111.867 32.5126 117.781 28.0014 117.781Z" fill="white"/>
<path d="M92.8056 1.4632H79.6985C66.7743 1.4632 59.2759 17.1917 59.2759 32.7983V106.99C59.2759 122.475 67.2011 138.143 80.2472 138.143H92.9885C106.035 138.143 113.594 125.767 113.594 110.282V34.6881C113.594 19.0815 105.73 1.4632 92.8056 1.4632ZM95.3051 110.343C95.0003 117.537 89.2697 118.33 86.6483 118.33C83.905 118.33 78.4793 117.781 77.5648 110.343V31.1523C77.8087 23.4099 83.6611 21.3372 86.2826 21.2762C88.9649 21.2762 95.1222 24.0805 95.3051 31.1523V110.343Z" fill="white"/>
<path d="M225.523 61.2685H213.147V1.76849H193.029V138.204H213.147V80.9596H225.523V138.204H243.994V1.76849H225.523V61.2685Z" fill="white"/>
</svg>
