<svg width="29" height="20" viewBox="0 0 29 20" fill="none" xmlns="http://www.w3.org/2000/svg">
<path fill-rule="evenodd" clip-rule="evenodd" d="M27.3333 0H1.11111C0.497445 0 0 0.483858 0 1.08076C0 1.67767 0.497445 2.16153 1.11111 2.16153H27.3333C27.947 2.16153 28.4445 1.67767 28.4445 1.08076C28.4445 0.483858 27.947 0 27.3333 0ZM27.3333 8.64636H1.11111C0.497445 8.64636 0 9.13022 0 9.72713C0 10.324 0.497445 10.8079 1.11111 10.8079H27.3333C27.947 10.8079 28.4445 10.324 28.4445 9.72713C28.4445 9.13022 27.947 8.64636 27.3333 8.64636ZM1.11111 17.2924H27.3333C27.947 17.2924 28.4445 17.7762 28.4445 18.3731C28.4445 18.9701 27.947 19.4539 27.3333 19.4539H1.11111C0.497445 19.4539 0 18.9701 0 18.3731C0 17.7762 0.497445 17.2924 1.11111 17.2924Z" fill="white"/>
</svg>
