<svg width="142" height="51" viewBox="0 0 142 51" fill="none" xmlns="http://www.w3.org/2000/svg">
<path d="M98.7067 29.2988L98.6753 21.7099C98.6753 19.7616 98.0939 17.232 95.6743 16.5249V16.415C97.7797 15.9593 98.2982 13.524 98.2982 11.5285L98.3296 7.63196C98.3296 3.42114 96.3656 1.31573 92.4533 1.31573H84.6602V36.1964H93.4274C96.7741 36.1806 98.7067 32.7711 98.7067 29.2988ZM91.6991 5.52655C93.0189 5.52655 93.6631 6.375 93.6631 8.05618L93.726 12.0156C93.726 13.6968 92.8775 14.5452 91.1963 14.5452H89.4052L89.3423 5.52655H91.6991ZM92.1076 30.9957H89.4366L89.4052 19.4788H91.5734C93.3175 19.4788 93.8202 21.0186 93.8202 22.684L93.8517 28.6389C93.8517 29.6602 93.2703 30.9957 92.1076 30.9957Z" fill="white"/>
<path d="M112.393 30.3359H105.244V20.4216H111.12V14.7024H105.244V6.40651H112.125V1.30011H100.483V36.4164H112.393V30.3359Z" fill="white"/>
<path d="M77.1341 30.3359H70.0008V20.4216H75.8614V14.7024H70.0008V6.40651H76.867V1.30011H65.6643V36.4164H77.1341V30.3359Z" fill="white"/>
<path d="M118.882 9.65876C118.552 7.85188 119.353 5.55793 120.61 5.58936C122.181 5.63649 122.857 6.89345 122.857 8.30753L122.826 11.4185L127.429 11.4656L127.351 7.69476C127.351 3.67249 124.727 0.860046 121.207 0.860046L119.715 1.01717C116.981 1.17429 114.435 3.82961 114.137 7.31767C113.901 10.2087 113.933 14.0895 117.531 18.0018L120.83 21.977C123.046 24.0352 122.747 27.9632 122.747 27.9632C122.747 29.3459 122.26 31.1213 120.579 31.0742C118.741 31.0271 118.536 29.0631 118.536 27.6804V23.1239H113.87V29.7073C113.87 34.0281 116.431 36.6677 119.95 36.6677H121.49C125.041 36.6677 127.461 33.5096 127.618 28.7488C127.681 26.5334 128.403 22.0869 123.988 17.0591C122.119 14.9223 119.416 12.5341 118.882 9.65876Z" fill="white"/>
<path d="M128.639 1.30011V6.40651H132.771V36.5264H137.343V6.40651H141.475V1.30011H128.639Z" fill="white"/>
<path d="M44.8467 36.5264V6.40651H48.9789V1.30011H36.1422V6.40651H40.2588V36.5264H44.8467Z" fill="white"/>
<path d="M8.48905 1.36285H0.821594V36.1178H9.40034C12.9198 36.1178 14.5853 32.9754 14.5853 29.5816L14.3968 8.60608C14.3968 4.09674 12.6056 1.36285 8.48905 1.36285ZM7.87628 31.2156L5.58233 31.2313V6.59495L7.78201 6.61066C9.10181 6.61066 9.66744 8.38611 9.66744 10.0987L9.71458 28.6546C9.71458 29.6916 9.03896 31.2156 7.87628 31.2156Z" fill="white"/>
<path d="M24.5785 1.23706H21.2004C17.8695 1.23706 15.9369 5.29075 15.9369 9.31302V28.4345C15.9369 32.4254 17.9794 36.4633 21.3418 36.4633H24.6256C27.988 36.4633 29.9363 33.2738 29.9363 29.283V9.8001C29.9363 5.77783 27.9094 1.23706 24.5785 1.23706ZM25.2227 29.2987C25.1441 31.1527 23.6672 31.3569 22.9916 31.3569C22.2845 31.3569 20.8862 31.2155 20.6505 29.2987V8.8888C20.7133 6.89338 22.2217 6.35917 22.8973 6.34346C23.5886 6.34346 25.1755 7.06621 25.2227 8.8888V29.2987Z" fill="white"/>
<path d="M58.7837 16.6506H55.5941V1.31573H50.4092V36.4792H55.5941V21.7256H58.7837V36.4792H63.5444V1.31573H58.7837V16.6506Z" fill="white"/>
<path d="M47.4553 49.8814L45.4442 44.7907H45.0357L43.0245 49.8814L40.9191 44.1151H40.4792L42.7888 50.1642H43.2445L45.2399 45.0893L47.2196 50.1642H47.691L50.0007 44.1151H49.5607L47.4553 49.8814Z" fill="white"/>
<path d="M51.8081 44.1151H51.4153V50.1642H51.8081V44.1151Z" fill="white"/>
<path d="M51.8081 41.9784H51.4153V42.9525H51.8081V41.9784Z" fill="white"/>
<path d="M54.9805 41.9784H54.6191V44.1152H53.2836V44.4609H54.6191V50.1643H54.9805V44.4609H56.3003V44.1152H54.9805V41.9784Z" fill="white"/>
<path d="M60.5896 43.9424C59.474 43.9424 58.5313 44.5394 58.1385 45.2465V41.9784H57.7614V50.1643H58.1385V46.3935C58.1385 45.2308 59.1912 44.2723 60.4796 44.2723C61.768 44.2723 62.8207 45.2308 62.8207 46.3935V50.1643H63.2135V46.4092C63.2135 45.0579 62.0194 43.9424 60.5896 43.9424Z" fill="white"/>
<path d="M72.154 46.802H77.826C77.4332 48.6089 75.7363 49.9759 73.5995 49.9759C71.1484 49.9759 69.1687 48.1847 69.1687 45.985C69.1687 43.7853 71.1484 41.9942 73.5995 41.9942C75.1078 41.9942 76.3805 42.6855 77.1347 43.7225H77.6689C76.8519 42.4812 75.375 41.6485 73.5995 41.6485C70.897 41.6485 68.6816 43.5968 68.6816 46.0007C68.6816 48.4047 70.8813 50.3529 73.5995 50.3529C76.1291 50.3529 78.0774 48.6403 78.3288 46.4721H72.154V46.802Z" fill="white"/>
<path d="M80.1679 41.8055H79.728V50.1643H84.0645V49.8186H80.1679V41.8055Z" fill="white"/>
<path d="M88.4628 41.8055L84.6919 50.1643H85.2104L86.5459 47.179H90.7881L92.1237 50.1643H92.6422L88.8713 41.8055H88.4628ZM86.703 46.8333L88.6827 42.2611L90.6625 46.8333H86.703Z" fill="white"/>
<path d="M98.1884 49.6143L94.4804 41.8055H93.8519V50.1643H94.2919V42.3868L98.0156 50.1643H98.377L102.085 42.3868V50.1643H102.525V41.8055H101.912L98.1884 49.6143Z" fill="white"/>
<path d="M107.726 42.1669H109.831V50.1643H110.287V42.1669H112.392V41.8055H107.726V42.1669Z" fill="white"/>
<path d="M113.664 50.1643H118.346V49.8186H114.104V46.1263H118.205V45.7649H114.104V42.1669H118.346V41.8055H113.664V50.1643Z" fill="white"/>
<path d="M123.077 41.8055L119.306 50.1643H119.825L121.16 47.179H125.402L126.722 50.1643H127.241L123.47 41.8055H123.077ZM121.302 46.8333L123.281 42.2611L125.277 46.8333H121.302Z" fill="white"/>
<path d="M132.803 49.6143L129.079 41.8055H128.466V50.1643H128.906V42.3868L132.614 50.1643H132.976L136.699 42.3868V50.1643H137.139V41.8055H136.511L132.803 49.6143Z" fill="white"/>
</svg>
